#Comment line ignore any data following # character 
#Hierarchical Translation and Rotation (.htr) file 
[Header]	
#Header keywords are followed by a single value 
FileType HTR		#Single word string
DataType HTRS		#Translation followed by rotation and scale data
FileVersion 1		#integer
NumSegments 84		#integer
NumFrames 2		#integer
DataFrameRate 30		#integer, data frame rate in this file
EulerRotationOrder ZYX
CalibrationUnits mm
RotationUnits Degrees
GlobalAxisofGravity Y
BoneLengthAxis Y
ScaleFactor 1.00
[SegmentNames&Hierarchy]
#CHILD	PARENT
MASTER GLOBAL
root MASTER
chest root
L_mid_tent01 root
R_mid_tent01 root
spine01 root
Bip01_Neck chest
L_humerus chest
R_humerus chest
weapon_bone chest
Bip01_Head Bip01_Neck
eye_left_bone Bip01_Head
eye_right_bone Bip01_Head
L_forearm L_humerus
L_front_hand L_forearm
L_weapon_bone L_forearm
L_front_hand01_01 L_front_hand
L_front_hand02_01 L_front_hand
L_front_hand03_01 L_front_hand
L_front_hand01_02 L_front_hand01_01
L_front_hand02_02 L_front_hand02_01
L_front_hand03_02 L_front_hand03_01
R_forearm R_humerus
R_front_hand R_forearm
R_weapon_bone R_forearm
R_front_hand01_01 R_front_hand
R_front_hand02_01 R_front_hand
R_front_hand03_01 R_front_hand
R_front_hand01_02 R_front_hand01_01
R_front_hand02_02 R_front_hand02_01
R_front_hand03_02 R_front_hand03_01
null_rope01_connect L_mid_tent01
Rope1_Seg01 null_rope01_connect
Rope1_Seg02 Rope1_Seg01
Rope1_Seg03 Rope1_Seg02
Rope1_Seg04 Rope1_Seg03
Rope1_Seg05 Rope1_Seg04
Rope1_Seg06 Rope1_Seg05
Rope1_Seg07 Rope1_Seg06
Rope1_Seg09 Rope1_Seg07
L_mid_hand01 Rope1_Seg09
L_mid_hand02 Rope1_Seg09
L_mid_hand03 Rope1_Seg09
null_rope02_connect R_mid_tent01
Rope2_Seg01 null_rope02_connect
Rope2_Seg02 Rope2_Seg01
Rope2_Seg03 Rope2_Seg02
Rope2_Seg04 Rope2_Seg03
Rope2_Seg05 Rope2_Seg04
Rope2_Seg06 Rope2_Seg05
Rope2_Seg07 Rope2_Seg06
Rope2_Seg09 Rope2_Seg07
R_mid_hand01 Rope2_Seg09
R_mid_hand02 Rope2_Seg09
R_mid_hand03 Rope2_Seg09
spine02 spine01
spine03 spine02
pelvis spine03
null_rope03_connect pelvis
null_rope04_connect pelvis
Rope3_Seg01 null_rope03_connect
Rope3_Seg02 Rope3_Seg01
Rope3_Seg03 Rope3_Seg02
Rope3_Seg04 Rope3_Seg03
Rope3_Seg05 Rope3_Seg04
Rope3_Seg06 Rope3_Seg05
Rope3_Seg07 Rope3_Seg06
Rope3_Seg08 Rope3_Seg07
Rope3_Seg09 Rope3_Seg08
R_rear_hand01 Rope3_Seg09
R_rear_hand02 Rope3_Seg09
R_rear_hand03 Rope3_Seg09
Rope4_Seg01 null_rope04_connect
Rope4_Seg02 Rope4_Seg01
Rope4_Seg03 Rope4_Seg02
Rope4_Seg04 Rope4_Seg03
Rope4_Seg05 Rope4_Seg04
Rope4_Seg06 Rope4_Seg05
Rope4_Seg07 Rope4_Seg06
Rope4_Seg08 Rope4_Seg07
Rope4_Seg09 Rope4_Seg08
L_rear_hand01 Rope4_Seg09
L_rear_hand02 Rope4_Seg09
L_rear_hand03 Rope4_Seg09
[BasePosition]
#SegmentName Tx, Ty, Tz, Rx, Ry, Rz, BoneLength
MASTER 0.000000 0.000000 0.000000 -90.000000 0.000000 0.000000 10.000000 
root 0.000000 0.000000 0.000000 0.000000 0.000000 0.000000 10.000000 
chest 0.000000 0.000000 0.000000 0.000000 0.000000 0.000000 10.000000 
L_mid_tent01 0.000000 0.000000 0.000000 0.000000 0.000000 0.000000 10.000000 
R_mid_tent01 0.000000 0.000000 0.000000 0.000000 0.000000 0.000000 10.000000 
spine01 0.000000 0.000000 0.000000 0.000000 0.000000 0.000000 10.000000 
Bip01_Neck 0.000000 0.000000 0.000000 0.000000 0.000000 0.000000 10.000000 
L_humerus 0.000000 0.000000 0.000000 0.000000 0.000000 0.000000 10.000000 
R_humerus 0.000000 0.000000 0.000000 0.000000 0.000000 0.000000 10.000000 
weapon_bone 0.000000 0.000000 0.000000 0.000000 0.000000 0.000000 10.000000 
Bip01_Head 0.000000 0.000000 0.000000 0.000000 0.000000 0.000000 10.000000 
eye_left_bone 0.000000 0.000000 0.000000 0.000000 0.000000 0.000000 10.000000 
eye_right_bone 0.000000 0.000000 0.000000 0.000000 0.000000 0.000000 10.000000 
L_forearm 0.000000 0.000000 0.000000 0.000000 0.000000 0.000000 10.000000 
L_front_hand 0.000000 0.000000 0.000000 0.000000 0.000000 0.000000 10.000000 
L_weapon_bone 0.000000 0.000000 0.000000 0.000000 0.000000 0.000000 10.000000 
L_front_hand01_01 0.000000 0.000000 0.000000 0.000000 0.000000 0.000000 10.000000 
L_front_hand02_01 0.000000 0.000000 0.000000 0.000000 0.000000 0.000000 10.000000 
L_front_hand03_01 0.000000 0.000000 0.000000 0.000000 0.000000 0.000000 10.000000 
L_front_hand01_02 0.000000 0.000000 0.000000 0.000000 0.000000 0.000000 10.000000 
L_front_hand02_02 0.000000 0.000000 0.000000 0.000000 0.000000 0.000000 10.000000 
L_front_hand03_02 0.000000 0.000000 0.000000 0.000000 0.000000 0.000000 10.000000 
R_forearm 0.000000 0.000000 0.000000 0.000000 0.000000 0.000000 10.000000 
R_front_hand 0.000000 0.000000 0.000000 0.000000 0.000000 0.000000 10.000000 
R_weapon_bone 0.000000 0.000000 0.000000 0.000000 0.000000 0.000000 10.000000 
R_front_hand01_01 0.000000 0.000000 0.000000 0.000000 0.000000 0.000000 10.000000 
R_front_hand02_01 0.000000 0.000000 0.000000 0.000000 0.000000 0.000000 10.000000 
R_front_hand03_01 0.000000 0.000000 0.000000 0.000000 0.000000 0.000000 10.000000 
R_front_hand01_02 0.000000 0.000000 0.000000 0.000000 0.000000 0.000000 10.000000 
R_front_hand02_02 0.000000 0.000000 0.000000 0.000000 0.000000 0.000000 10.000000 
R_front_hand03_02 0.000000 0.000000 0.000000 0.000000 0.000000 0.000000 10.000000 
null_rope01_connect 0.000000 0.000000 0.000000 0.000000 0.000000 0.000000 10.000000 
Rope1_Seg01 0.000000 0.000000 0.000000 0.000000 0.000000 0.000000 10.000000 
Rope1_Seg02 0.000000 0.000000 0.000000 0.000000 0.000000 0.000000 10.000000 
Rope1_Seg03 0.000000 0.000000 0.000000 0.000000 0.000000 0.000000 10.000000 
Rope1_Seg04 0.000000 0.000000 0.000000 0.000000 0.000000 0.000000 10.000000 
Rope1_Seg05 0.000000 0.000000 0.000000 0.000000 0.000000 0.000000 10.000000 
Rope1_Seg06 0.000000 0.000000 0.000000 0.000000 0.000000 0.000000 10.000000 
Rope1_Seg07 0.000000 0.000000 0.000000 0.000000 0.000000 0.000000 10.000000 
Rope1_Seg09 0.000000 0.000000 0.000000 0.000000 0.000000 0.000000 10.000000 
L_mid_hand01 0.000000 0.000000 0.000000 0.000000 0.000000 0.000000 10.000000 
L_mid_hand02 0.000000 0.000000 0.000000 0.000000 0.000000 0.000000 10.000000 
L_mid_hand03 0.000000 0.000000 0.000000 0.000000 0.000000 0.000000 10.000000 
null_rope02_connect 0.000000 0.000000 0.000000 0.000000 0.000000 0.000000 10.000000 
Rope2_Seg01 0.000000 0.000000 0.000000 0.000000 0.000000 0.000000 10.000000 
Rope2_Seg02 0.000000 0.000000 0.000000 0.000000 0.000000 0.000000 10.000000 
Rope2_Seg03 0.000000 0.000000 0.000000 0.000000 0.000000 0.000000 10.000000 
Rope2_Seg04 0.000000 0.000000 0.000000 0.000000 0.000000 0.000000 10.000000 
Rope2_Seg05 0.000000 0.000000 0.000000 0.000000 0.000000 0.000000 10.000000 
Rope2_Seg06 0.000000 0.000000 0.000000 0.000000 0.000000 0.000000 10.000000 
Rope2_Seg07 0.000000 0.000000 0.000000 0.000000 0.000000 0.000000 10.000000 
Rope2_Seg09 0.000000 0.000000 0.000000 0.000000 0.000000 0.000000 10.000000 
R_mid_hand01 0.000000 0.000000 0.000000 0.000000 0.000000 0.000000 10.000000 
R_mid_hand02 0.000000 0.000000 0.000000 0.000000 0.000000 0.000000 10.000000 
R_mid_hand03 0.000000 0.000000 0.000000 0.000000 0.000000 0.000000 10.000000 
spine02 0.000000 0.000000 0.000000 0.000000 0.000000 0.000000 10.000000 
spine03 0.000000 0.000000 0.000000 0.000000 0.000000 0.000000 10.000000 
pelvis 0.000000 0.000000 0.000000 0.000000 0.000000 0.000000 10.000000 
null_rope03_connect 0.000000 0.000000 0.000000 0.000000 0.000000 0.000000 10.000000 
null_rope04_connect 0.000000 0.000000 0.000000 0.000000 0.000000 0.000000 10.000000 
Rope3_Seg01 0.000000 0.000000 0.000000 0.000000 0.000000 0.000000 10.000000 
Rope3_Seg02 0.000000 0.000000 0.000000 0.000000 0.000000 0.000000 10.000000 
Rope3_Seg03 0.000000 0.000000 0.000000 0.000000 0.000000 0.000000 10.000000 
Rope3_Seg04 0.000000 0.000000 0.000000 0.000000 0.000000 0.000000 10.000000 
Rope3_Seg05 0.000000 0.000000 0.000000 0.000000 0.000000 0.000000 10.000000 
Rope3_Seg06 0.000000 0.000000 0.000000 0.000000 0.000000 0.000000 10.000000 
Rope3_Seg07 0.000000 0.000000 0.000000 0.000000 0.000000 0.000000 10.000000 
Rope3_Seg08 0.000000 0.000000 0.000000 0.000000 0.000000 0.000000 10.000000 
Rope3_Seg09 0.000000 0.000000 0.000000 0.000000 0.000000 0.000000 10.000000 
R_rear_hand01 0.000000 0.000000 0.000000 0.000000 0.000000 0.000000 10.000000 
R_rear_hand02 0.000000 0.000000 0.000000 0.000000 0.000000 0.000000 10.000000 
R_rear_hand03 0.000000 0.000000 0.000000 0.000000 0.000000 0.000000 10.000000 
Rope4_Seg01 0.000000 0.000000 0.000000 0.000000 0.000000 0.000000 10.000000 
Rope4_Seg02 0.000000 0.000000 0.000000 0.000000 0.000000 0.000000 10.000000 
Rope4_Seg03 0.000000 0.000000 0.000000 0.000000 0.000000 0.000000 10.000000 
Rope4_Seg04 0.000000 0.000000 0.000000 0.000000 0.000000 0.000000 10.000000 
Rope4_Seg05 0.000000 0.000000 0.000000 0.000000 0.000000 0.000000 10.000000 
Rope4_Seg06 0.000000 0.000000 0.000000 0.000000 0.000000 0.000000 10.000000 
Rope4_Seg07 0.000000 0.000000 0.000000 0.000000 0.000000 0.000000 10.000000 
Rope4_Seg08 0.000000 0.000000 0.000000 0.000000 0.000000 0.000000 10.000000 
Rope4_Seg09 0.000000 0.000000 0.000000 0.000000 0.000000 0.000000 10.000000 
L_rear_hand01 0.000000 0.000000 0.000000 0.000000 0.000000 0.000000 10.000000 
L_rear_hand02 0.000000 0.000000 0.000000 0.000000 0.000000 0.000000 10.000000 
L_rear_hand03 0.000000 0.000000 0.000000 0.000000 0.000000 0.000000 10.000000 
#Beginning of Data. Separated by tabs
#Fr	Tx	Ty	Tz	Rx	Ry	Rz	SF
[MASTER]
15 -1802.754761 -0.000272 0.000000 0.001660 0.001660 0.001660 1802.754761
16 -1904.316406 -0.000288 0.000000 0.001660 0.001660 0.001660 1904.316406
[root]
15 -16.502380 -62.822117 1273.551147 111.816704 -27.676870 -90.148994 1275.206421
16 -16.502380 -62.822117 1301.155762 127.450813 -27.675320 -90.552490 1302.776001
[chest]
15 -84.512650 -34.090519 0.000000 -153.186432 16.035187 -178.947739 91.129311
16 -84.512650 -34.090519 0.000000 -139.252426 15.575254 -177.159714 91.129311
[L_mid_tent01]
15 27.490730 22.067869 -251.146729 -30.286831 1.954707 17.046070 253.608780
16 27.482986 22.072294 -251.096939 -30.018908 3.110020 18.269363 253.559006
[R_mid_tent01]
15 23.228794 24.509907 226.238495 -142.311584 -24.266567 14.214133 228.744751
16 23.228794 24.509907 226.238495 -139.055954 -14.754402 10.094258 228.744751
[spine01]
15 -0.361383 -0.195265 0.000000 33.471451 1.977200 -3.355795 0.410763
16 -0.361383 -0.195265 0.000000 35.550571 1.905671 -2.810797 0.410763
[Bip01_Neck]
15 165.484543 71.581718 0.000119 175.896118 1.177290 24.871183 180.302734
16 165.484543 71.581718 0.000119 175.896118 1.177290 24.871183 180.302734
[L_humerus]
15 -13.983130 -135.272980 -120.471481 170.940796 81.564224 -99.189163 181.680161
16 -13.983130 -135.272980 -120.471481 170.940796 81.564224 -99.189163 181.680161
[R_humerus]
15 -13.983309 -135.273102 125.287651 -159.666046 -68.957870 -101.166077 184.909012
16 -13.983309 -135.273102 125.287651 -159.666046 -68.957870 -101.166077 184.909012
[weapon_bone]
15 235.964890 -300.705902 0.000000 0.000000 -89.951546 -128.212341 382.234833
16 235.964890 -300.705902 0.000000 0.000000 -89.951546 -128.212341 382.234833
[Bip01_Head]
15 261.355865 108.959518 -2.864150 2.248029 5.843377 -62.458344 283.173584
16 261.355865 108.959534 -2.864143 2.248029 5.843377 -62.458344 283.173584
[eye_left_bone]
15 -24.626970 125.451866 -64.772606 0.000000 -90.000000 -99.840431 143.318359
16 -24.626970 125.451866 -64.772606 0.000000 -90.000000 -99.840431 143.318359
[eye_right_bone]
15 -24.626970 125.451866 64.327362 0.000000 -89.960434 80.159386 143.117676
16 -24.626970 125.451866 64.327362 0.000000 -89.960434 80.159386 143.117676
[L_forearm]
15 322.776093 0.000000 -0.000119 0.000471 0.002300 -66.859398 322.776093
16 322.776093 0.000000 -0.000119 0.000471 0.002300 -66.859406 322.776093
[L_front_hand]
15 241.149185 -0.042021 -3.300071 -178.667953 -1.835447 -27.422350 241.171753
16 241.149185 -0.042021 -3.300071 -178.667953 -1.835447 -27.422350 241.171753
[L_weapon_bone]
15 156.183838 0.000000 0.000000 0.001660 0.001660 0.001660 156.183838
16 156.183838 0.000000 0.000000 0.001660 0.001660 0.001660 156.183838
[L_front_hand01_01]
15 86.095154 20.947098 -0.655860 0.276758 -0.529744 10.286519 88.609184
16 86.095154 20.947098 -0.655860 0.244884 -0.545837 13.713188 88.609184
[L_front_hand02_01]
15 86.935165 -11.437475 24.513514 117.320633 -9.651673 -5.295431 91.046425
16 86.935165 -11.437475 24.513514 117.635902 -12.690722 -6.909610 91.046425
[L_front_hand03_01]
15 86.637497 -14.123976 -20.424902 -118.656441 8.449519 -7.262133 90.126129
16 86.637497 -14.123976 -20.424902 -118.947525 11.457403 -8.938595 90.126129
[L_front_hand01_02]
15 71.020905 -0.000179 0.000030 0.001081 0.002083 -35.157215 71.020905
16 71.020905 -0.000179 0.000030 0.001003 0.002122 -39.385151 71.020905
[L_front_hand02_02]
15 71.020927 -0.000119 0.000060 0.001081 0.002083 -35.157215 71.020927
16 71.020927 -0.000119 0.000060 0.001003 0.002122 -39.385151 71.020927
[L_front_hand03_02]
15 71.020905 -0.000060 0.000060 0.001081 0.002083 -35.157215 71.020905
16 71.020905 -0.000060 0.000060 0.001003 0.002122 -39.385151 71.020905
[R_forearm]
15 322.776428 -0.000060 0.000030 0.199694 -0.075621 -69.903069 322.776428
16 322.776428 -0.000060 0.000030 0.199694 -0.075621 -69.903069 322.776428
[R_front_hand]
15 238.847015 -0.006795 2.210259 -1.531694 0.790216 -51.443054 238.857239
16 238.847015 -0.006795 2.210259 -1.531694 0.790216 -51.443054 238.857239
[R_weapon_bone]
15 155.664093 0.002503 -0.000030 0.003487 0.001180 -90.988930 155.664078
16 155.664093 0.002503 -0.000030 0.003487 0.001180 -90.988930 155.664078
[R_front_hand01_01]
15 87.624611 14.231146 22.918642 -117.333893 -9.781584 5.472091 91.683487
16 87.624611 14.231146 22.918642 -117.652397 -12.820724 7.088303 91.683487
[R_front_hand02_01]
15 89.356956 14.367283 -19.491137 118.706993 8.852694 7.725608 92.579636
16 89.356956 14.367283 -19.491137 119.012291 11.853583 9.406950 92.579636
[R_front_hand03_01]
15 87.286232 -22.307278 -0.143439 -0.315605 -0.325845 -10.670901 90.091743
16 87.286232 -22.307278 -0.143439 -0.294689 -0.343740 -14.098675 90.091743
[R_front_hand01_02]
15 71.020905 0.000060 0.000119 0.002083 0.001081 35.155499 71.020905
16 71.020905 0.000060 0.000119 0.002122 0.001003 39.388680 71.020905
[R_front_hand02_02]
15 71.020844 -0.000030 -0.000119 0.002083 0.001081 35.155499 71.020836
16 71.020844 -0.000030 -0.000119 0.002122 0.001003 39.388680 71.020836
[R_front_hand03_02]
15 71.020905 0.000000 0.000030 0.002083 0.001081 35.155499 71.020905
16 71.020905 0.000000 0.000030 0.002122 0.001003 39.388680 71.020905
[null_rope01_connect]
15 328.732483 0.000000 -0.000238 69.522728 79.466805 115.625160 328.732483
16 328.732483 0.000000 -0.000238 165.357986 79.670631 -149.324890 328.732483
[Rope1_Seg01]
15 0.000000 0.000000 0.000000 -115.713554 -50.721428 52.022404 0.000000
16 0.000000 0.000000 0.000000 -165.288895 -56.473576 80.472885 0.000000
[Rope1_Seg02]
15 139.999863 -0.000179 0.000000 -13.575982 -12.134738 9.666997 139.999863
16 139.999863 -0.000179 0.000000 -23.601954 -17.054527 4.657503 139.999863
[Rope1_Seg03]
15 139.999924 0.000060 -0.000060 -140.966370 -22.530399 11.396920 139.999924
16 139.999924 0.000060 -0.000060 -68.800896 -26.810801 -4.084385 139.999924
[Rope1_Seg04]
15 139.999924 -0.000060 -0.000119 -13.980515 10.339793 -25.416025 139.999924
16 139.999924 -0.000060 -0.000119 -24.797293 -5.152860 -24.227026 139.999924
[Rope1_Seg05]
15 139.999832 0.000119 -0.000060 -2.129139 8.139676 -11.694164 139.999832
16 139.999832 0.000119 -0.000060 -5.196855 3.127330 -12.401588 139.999832
[Rope1_Seg06]
15 139.999954 0.000119 -0.000060 -0.807903 6.125784 -7.972505 139.999954
16 139.999954 0.000119 -0.000060 -2.533930 3.674686 -9.956097 139.999954
[Rope1_Seg07]
15 139.999985 0.000060 0.000000 -0.592688 5.813886 -7.491604 139.999985
16 139.999985 0.000060 0.000000 -1.524912 3.677446 -9.033391 139.999985
[Rope1_Seg09]
15 121.602913 0.000119 -0.000089 -89.793175 -1.359789 0.847147 121.602913
16 121.602913 0.000119 -0.000089 -89.793175 -1.359789 0.847147 121.602913
[L_mid_hand01]
15 103.859421 1.038730 8.195221 104.445610 -6.473835 -2.195928 104.187431
16 103.859421 1.038730 8.195221 104.530579 -8.858539 -2.815847 104.187431
[L_mid_hand02]
15 105.572853 -4.139662 -10.864139 -136.174118 8.800051 -8.461067 106.211075
16 105.572853 -4.139662 -10.864139 -136.473404 10.500956 -10.268885 106.211075
[L_mid_hand03]
15 104.641464 17.579376 -3.913581 -18.668604 1.936286 9.605985 106.179977
16 104.641464 17.579376 -3.913581 -18.575745 2.721513 11.937086 106.179977
[null_rope02_connect]
15 328.732849 0.000179 -0.000119 17.125277 -24.871372 120.957626 328.732849
16 328.732849 0.000179 -0.000119 23.249027 -9.835182 108.552101 328.732849
[Rope2_Seg01]
15 -0.000055 0.000134 0.000153 121.180153 -49.110783 -158.677841 0.000210
16 -0.000053 0.000134 0.000153 114.776413 -40.174618 -157.237579 0.000210
[Rope2_Seg02]
15 139.999741 -0.000060 -0.000119 10.786450 -18.941202 22.293962 139.999756
16 139.999741 -0.000060 -0.000119 0.342281 -21.166267 12.728602 139.999756
[Rope2_Seg03]
15 140.000107 0.000030 0.000000 65.282700 -15.787890 30.595194 140.000107
16 140.000107 0.000030 0.000000 38.315308 -25.734053 17.697302 140.000107
[Rope2_Seg04]
15 139.999802 0.000000 -0.000060 33.620823 12.546236 13.729921 139.999802
16 139.999802 0.000000 -0.000060 112.253571 -5.063139 18.999640 139.999802
[Rope2_Seg05]
15 139.999985 -0.000060 0.000119 9.242926 15.924009 1.908392 139.999985
16 139.999985 -0.000060 0.000119 7.113111 16.652025 -2.617441 139.999985
[Rope2_Seg06]
15 139.999893 -0.000030 -0.000119 3.449724 12.872426 -0.455544 139.999893
16 139.999893 -0.000030 -0.000119 1.517810 13.397523 -3.974423 139.999893
[Rope2_Seg07]
15 139.999893 0.000060 -0.000060 1.320735 7.858871 -0.571941 139.999893
16 139.999893 0.000060 -0.000060 0.449753 7.963171 -2.609737 139.999893
[Rope2_Seg09]
15 121.338966 0.000089 -0.000060 33.793236 -1.359788 -0.847141 121.338966
16 121.338966 0.000089 -0.000060 33.793236 -1.359788 -0.847141 121.338966
[R_mid_hand01]
15 104.680779 11.144459 -10.335981 -46.801640 8.973886 11.064841 105.778534
16 104.680779 11.144459 -10.335981 -46.526108 10.640026 12.655807 105.778534
[R_mid_hand02]
15 104.070427 2.443552 8.231699 75.403473 -10.192782 3.176561 104.424065
16 104.070427 2.443552 8.231699 75.284584 -12.403854 3.766673 104.424065
[R_mid_hand03]
15 106.028137 -11.221827 -5.996406 -164.874466 4.674486 -14.062467 106.788818
16 106.028137 -11.221827 -5.996406 -165.067444 5.264448 -16.276682 106.788818
[spine02]
15 129.756927 0.001550 0.000119 -0.245322 -4.052060 -4.355547 129.756927
16 129.756927 0.001550 0.000119 -0.245322 -4.052060 -4.355547 129.756927
[spine03]
15 78.613823 0.087347 -4.898905 0.369659 4.260734 -4.885720 78.766365
16 78.613831 0.087341 -4.898912 0.369659 4.260734 -4.885720 78.766373
[pelvis]
15 169.435242 0.051022 0.000000 -0.010047 -0.193695 -1.851898 169.435257
16 169.435242 0.051022 0.000000 -0.010040 -0.193315 -1.859507 169.435257
[null_rope03_connect]
15 -1.257226 -2.466202 137.391083 -152.777008 34.288635 -75.376213 137.418976
16 -1.257226 -2.466202 137.391083 -152.658432 16.759048 -76.060684 137.418976
[null_rope04_connect]
15 -1.259640 -2.480268 -137.844437 -152.777008 34.288635 -75.376213 137.872513
16 -1.259640 -2.480268 -137.844437 -152.658432 16.759048 -76.060684 137.872513
[Rope3_Seg01]
15 0.000163 0.000000 0.000067 -129.743988 37.478653 -70.692993 0.000176
16 0.000175 0.000000 0.000061 -120.522049 29.677063 -53.907345 0.000186
[Rope3_Seg02]
15 139.999924 -0.000119 0.000060 -1.839720 -4.233187 11.945449 139.999924
16 139.999924 -0.000119 0.000060 1.086442 -5.724398 11.311186 139.999924
[Rope3_Seg03]
15 139.999924 -0.000119 0.000119 -10.295378 -9.433636 25.614159 139.999924
16 139.999924 -0.000119 0.000119 -3.301877 -11.278989 24.917635 139.999924
[Rope3_Seg04]
15 139.999924 0.000119 0.000000 -24.319221 -15.358868 29.829947 139.999924
16 139.999924 0.000119 0.000000 -13.099764 -13.782293 30.683167 139.999924
[Rope3_Seg05]
15 139.999924 -0.000238 0.000060 -24.164854 -20.981102 18.856665 139.999924
16 139.999924 -0.000238 0.000060 -17.596558 -16.011992 22.956467 139.999924
[Rope3_Seg06]
15 139.999893 -0.000119 -0.000060 -12.014450 -18.279772 6.530830 139.999893
16 139.999893 -0.000119 -0.000060 -12.705453 -14.898895 12.192372 139.999893
[Rope3_Seg07]
15 139.999771 0.000060 -0.000119 -3.285228 -8.298389 1.212364 139.999771
16 139.999771 0.000060 -0.000119 -4.526564 -7.391707 3.910553 139.999771
[Rope3_Seg08]
15 139.999985 -0.000060 0.000000 -1.026140 -4.105961 0.370032 139.999985
16 139.999985 -0.000060 0.000000 -1.750394 -3.777852 1.653019 139.999985
[Rope3_Seg09]
15 90.185997 -0.000179 -0.000060 89.793228 -1.359877 -0.847183 90.185997
16 90.185997 -0.000179 -0.000060 89.793228 -1.359877 -0.847183 90.185997
[R_rear_hand01]
15 103.366196 -6.073594 -10.757982 -156.260391 6.888772 -4.662050 104.101845
16 103.366196 -6.073594 -10.757982 -156.519684 7.778793 -6.714527 104.101845
[R_rear_hand02]
15 100.509819 12.039542 -7.992327 -38.633274 3.224904 7.045907 101.543350
16 100.509819 12.039542 -7.992327 -38.515537 4.609975 8.784945 101.543350
[R_rear_hand03]
15 101.539970 5.215704 5.435467 84.294777 -4.384002 4.300453 101.819031
16 101.539970 5.215704 5.435467 84.275841 -6.590108 4.520812 101.819031
[Rope4_Seg01]
15 -0.000014 -0.000034 -0.000153 18.940773 -21.574017 -48.403027 0.000157
16 -0.000013 -0.000031 -0.000153 10.626351 -33.333405 -45.340786 0.000156
[Rope4_Seg02]
15 139.999985 0.000060 0.000119 -0.892715 26.136845 17.364811 139.999985
16 139.999985 0.000060 0.000119 -11.368017 17.856911 23.630743 139.999985
[Rope4_Seg03]
15 139.999924 0.000000 -0.000238 -141.071671 39.379040 45.317230 139.999924
16 139.999924 0.000000 -0.000238 -89.828896 16.211607 55.394680 139.999924
[Rope4_Seg04]
15 139.999985 0.000000 0.000119 -3.706441 -20.863764 -4.409090 139.999985
16 139.999985 0.000000 0.000119 -14.303790 -21.551569 6.882942 139.999985
[Rope4_Seg05]
15 139.999802 -0.000060 -0.000119 -5.311151 -12.398281 4.663494 139.999802
16 139.999802 -0.000060 -0.000119 -7.506198 -9.548725 8.214661 139.999802
[Rope4_Seg06]
15 139.999924 0.000000 0.000060 -2.623855 -9.500919 3.272991 139.999924
16 139.999924 0.000000 0.000060 -4.577884 -7.554105 6.045643 139.999924
[Rope4_Seg07]
15 139.999802 0.000000 0.000000 -0.608294 -5.521603 0.635080 139.999802
16 139.999802 0.000000 0.000000 -1.640813 -4.965827 2.137435 139.999802
[Rope4_Seg08]
15 139.999924 0.000000 0.000119 -1.759884 -3.312475 0.344501 139.999924
16 139.999924 0.000000 0.000119 -2.335749 -3.016599 1.201334 139.999924
[Rope4_Seg09]
15 90.185791 0.000060 0.000060 -135.617828 2.228885 0.850567 90.185791
16 90.185791 0.000060 0.000060 -135.617828 2.228885 0.850567 90.185791
[L_rear_hand01]
15 101.696655 -8.392275 -7.654577 -38.734707 -1.082930 175.627808 102.329041
16 101.696655 -8.392275 -7.654577 -38.676117 -2.543634 173.809082 102.329041
[L_rear_hand02]
15 102.726799 -1.568258 5.773216 84.315697 0.973563 176.040817 102.900848
16 102.726799 -1.568258 5.773216 84.302147 3.292158 175.808121 102.900848
[L_rear_hand03]
15 104.552910 9.721220 -10.420293 -155.919388 -5.502444 -178.482697 105.519653
16 104.552910 9.721220 -10.420293 -156.143280 -6.452847 -176.342621 105.519653
